<svg width="199" height="58" viewBox="0 0 199 58" fill="none" xmlns="http://www.w3.org/2000/svg">
<g filter="url(#filter0_dd_3806_54)">
<path d="M77.6591 23.9091C77.5568 23.0455 77.142 22.375 76.4148 21.8977C75.6875 21.4205 74.7955 21.1818 73.7386 21.1818C72.9659 21.1818 72.2898 21.3068 71.7102 21.5568C71.1364 21.8068 70.6875 22.1506 70.3636 22.5881C70.0455 23.0256 69.8864 23.5227 69.8864 24.0795C69.8864 24.5455 69.9972 24.946 70.2188 25.2812C70.446 25.6108 70.7358 25.8864 71.0881 26.108C71.4403 26.3239 71.8097 26.5028 72.196 26.6449C72.5824 26.7812 72.9375 26.892 73.2614 26.9773L75.0341 27.4545C75.4886 27.5739 75.9943 27.7386 76.5511 27.9489C77.1136 28.1591 77.6506 28.446 78.1619 28.8097C78.679 29.1676 79.1051 29.6278 79.4403 30.1903C79.7756 30.7528 79.9432 31.4432 79.9432 32.2614C79.9432 33.2045 79.696 34.0568 79.2017 34.8182C78.7131 35.5795 77.9972 36.1847 77.054 36.6335C76.1165 37.0824 74.9773 37.3068 73.6364 37.3068C72.3864 37.3068 71.304 37.1051 70.3892 36.7017C69.4801 36.2983 68.7642 35.7358 68.2415 35.0142C67.7244 34.2926 67.4318 33.4545 67.3636 32.5H69.5455C69.6023 33.1591 69.8239 33.7045 70.2102 34.1364C70.6023 34.5625 71.0966 34.8807 71.6932 35.0909C72.2955 35.2955 72.9432 35.3977 73.6364 35.3977C74.4432 35.3977 75.1676 35.267 75.8097 35.0057C76.4517 34.7386 76.9602 34.3693 77.3352 33.8977C77.7102 33.4205 77.8977 32.8636 77.8977 32.2273C77.8977 31.6477 77.7358 31.1761 77.4119 30.8125C77.0881 30.4489 76.6619 30.1534 76.1335 29.9261C75.6051 29.6989 75.0341 29.5 74.4205 29.3295L72.2727 28.7159C70.9091 28.3239 69.8295 27.7642 69.0341 27.0369C68.2386 26.3097 67.8409 25.358 67.8409 24.1818C67.8409 23.2045 68.1051 22.3523 68.6335 21.625C69.1676 20.892 69.8835 20.3239 70.7812 19.9205C71.6847 19.5114 72.6932 19.3068 73.8068 19.3068C74.9318 19.3068 75.9318 19.5085 76.8068 19.9119C77.6818 20.3097 78.375 20.8551 78.8864 21.5483C79.4034 22.2415 79.6761 23.0284 79.7045 23.9091H77.6591ZM85.157 29.125V37H83.1456V19.5455H85.157V25.9545H85.3274C85.6342 25.2784 86.0945 24.7415 86.7081 24.3438C87.3274 23.9403 88.1513 23.7386 89.1797 23.7386C90.0717 23.7386 90.853 23.9176 91.5234 24.2756C92.1939 24.6278 92.7138 25.1705 93.0831 25.9034C93.4581 26.6307 93.6456 27.5568 93.6456 28.6818V37H91.6342V28.8182C91.6342 27.7784 91.3643 26.9744 90.8246 26.4062C90.2905 25.8324 89.549 25.5455 88.6001 25.5455C87.9411 25.5455 87.3501 25.6847 86.8274 25.9631C86.3104 26.2415 85.9013 26.6477 85.6001 27.1818C85.3047 27.7159 85.157 28.3636 85.157 29.125ZM102.814 37.2727C101.553 37.2727 100.464 36.9943 99.5497 36.4375C98.6406 35.875 97.9389 35.0909 97.4446 34.0852C96.956 33.0739 96.7116 31.8977 96.7116 30.5568C96.7116 29.2159 96.956 28.0341 97.4446 27.0114C97.9389 25.983 98.6264 25.1818 99.5071 24.608C100.393 24.0284 101.428 23.7386 102.609 23.7386C103.291 23.7386 103.964 23.8523 104.629 24.0795C105.294 24.3068 105.899 24.6761 106.445 25.1875C106.99 25.6932 107.425 26.3636 107.749 27.1989C108.072 28.0341 108.234 29.0625 108.234 30.2841V31.1364H98.1435V29.3977H106.189C106.189 28.6591 106.041 28 105.746 27.4205C105.456 26.8409 105.041 26.3835 104.501 26.0483C103.967 25.7131 103.337 25.5455 102.609 25.5455C101.808 25.5455 101.115 25.7443 100.53 26.142C99.9503 26.5341 99.5043 27.0455 99.1918 27.6761C98.8793 28.3068 98.723 28.983 98.723 29.7045V30.8636C98.723 31.8523 98.8935 32.6903 99.2344 33.3778C99.581 34.0597 100.061 34.5795 100.675 34.9375C101.288 35.2898 102.001 35.4659 102.814 35.4659C103.342 35.4659 103.82 35.392 104.246 35.2443C104.678 35.0909 105.05 34.8636 105.362 34.5625C105.675 34.2557 105.916 33.875 106.087 33.4205L108.03 33.9659C107.825 34.625 107.482 35.2045 106.999 35.7045C106.516 36.1989 105.919 36.5852 105.209 36.8636C104.499 37.1364 103.7 37.2727 102.814 37.2727ZM111.294 37V23.9091H113.305V37H111.294ZM112.317 21.7273C111.925 21.7273 111.587 21.5938 111.303 21.3267C111.024 21.0597 110.885 20.7386 110.885 20.3636C110.885 19.9886 111.024 19.6676 111.303 19.4006C111.587 19.1335 111.925 19 112.317 19C112.709 19 113.044 19.1335 113.322 19.4006C113.607 19.6676 113.749 19.9886 113.749 20.3636C113.749 20.7386 113.607 21.0597 113.322 21.3267C113.044 21.5938 112.709 21.7273 112.317 21.7273ZM119.001 19.5455V37H116.989V19.5455H119.001ZM127.628 37.2727C126.537 37.2727 125.574 36.9972 124.739 36.446C123.903 35.8892 123.25 35.1051 122.778 34.0938C122.307 33.0767 122.071 31.875 122.071 30.4886C122.071 29.1136 122.307 27.9205 122.778 26.9091C123.25 25.8977 123.906 25.1165 124.747 24.5653C125.588 24.0142 126.56 23.7386 127.662 23.7386C128.514 23.7386 129.188 23.8807 129.682 24.1648C130.182 24.4432 130.563 24.7614 130.824 25.1193C131.091 25.4716 131.298 25.7614 131.446 25.9886H131.616V19.5455H133.628V37H131.685V34.9886H131.446C131.298 35.2273 131.088 35.5284 130.815 35.892C130.543 36.25 130.153 36.571 129.648 36.8551C129.142 37.1335 128.469 37.2727 127.628 37.2727ZM127.901 35.4659C128.707 35.4659 129.389 35.2557 129.946 34.8352C130.503 34.4091 130.926 33.821 131.216 33.071C131.506 32.3153 131.651 31.4432 131.651 30.4545C131.651 29.4773 131.509 28.6222 131.224 27.8892C130.94 27.1506 130.52 26.5767 129.963 26.1676C129.406 25.7528 128.719 25.5455 127.901 25.5455C127.048 25.5455 126.338 25.7642 125.77 26.2017C125.207 26.6335 124.784 27.2216 124.5 27.9659C124.222 28.7045 124.082 29.5341 124.082 30.4545C124.082 31.3864 124.224 32.233 124.509 32.9943C124.798 33.75 125.224 34.3523 125.787 34.8011C126.355 35.2443 127.06 35.4659 127.901 35.4659ZM146.864 26.8409L145.057 27.3523C144.943 27.0511 144.776 26.7585 144.554 26.4744C144.338 26.1847 144.043 25.946 143.668 25.7585C143.293 25.571 142.812 25.4773 142.227 25.4773C141.426 25.4773 140.759 25.6619 140.224 26.0312C139.696 26.3949 139.432 26.858 139.432 27.4205C139.432 27.9205 139.614 28.3153 139.977 28.6051C140.341 28.8949 140.909 29.1364 141.682 29.3295L143.625 29.8068C144.795 30.0909 145.668 30.5256 146.241 31.1108C146.815 31.6903 147.102 32.4375 147.102 33.3523C147.102 34.1023 146.886 34.7727 146.455 35.3636C146.028 35.9545 145.432 36.4205 144.665 36.7614C143.898 37.1023 143.006 37.2727 141.989 37.2727C140.653 37.2727 139.548 36.983 138.673 36.4034C137.798 35.8239 137.244 34.9773 137.011 33.8636L138.92 33.3864C139.102 34.0909 139.446 34.6193 139.952 34.9716C140.463 35.3239 141.131 35.5 141.955 35.5C142.892 35.5 143.636 35.3011 144.188 34.9034C144.744 34.5 145.023 34.017 145.023 33.4545C145.023 33 144.864 32.6193 144.545 32.3125C144.227 32 143.739 31.767 143.08 31.6136L140.898 31.1023C139.699 30.8182 138.818 30.3778 138.256 29.7812C137.699 29.179 137.42 28.4261 137.42 27.5227C137.42 26.7841 137.628 26.1307 138.043 25.5625C138.463 24.9943 139.034 24.5483 139.756 24.2244C140.483 23.9006 141.307 23.7386 142.227 23.7386C143.523 23.7386 144.54 24.0227 145.278 24.5909C146.023 25.1591 146.551 25.9091 146.864 26.8409ZM150.017 19.5455L155.199 34.2386H155.403L160.585 19.5455H162.801L156.392 37H154.21L147.801 19.5455H150.017ZM165.52 37V19.5455H171.418C172.787 19.5455 173.906 19.7926 174.776 20.2869C175.651 20.7756 176.298 21.4375 176.719 22.2727C177.139 23.108 177.349 24.0398 177.349 25.0682C177.349 26.0966 177.139 27.0312 176.719 27.8722C176.304 28.7131 175.662 29.3835 174.793 29.8835C173.923 30.3778 172.81 30.625 171.452 30.625H167.224V28.75H171.384C172.321 28.75 173.074 28.5881 173.642 28.2642C174.21 27.9403 174.622 27.5028 174.878 26.9517C175.139 26.3949 175.27 25.767 175.27 25.0682C175.27 24.3693 175.139 23.7443 174.878 23.1932C174.622 22.642 174.207 22.2102 173.634 21.8977C173.06 21.5795 172.298 21.4205 171.349 21.4205H167.634V37H165.52ZM194.595 19.5455V37H192.55L183.038 23.2955H182.868V37H180.754V19.5455H182.8L192.345 33.2841H192.516V19.5455H194.595Z" fill="#D4D4D4"/>
</g>
<g filter="url(#filter1_dd_3806_54)">
<path d="M53.8954 14.4832C53.8455 14.0569 53.5391 13.705 53.1238 13.5961C36.1645 9.16083 29.7757 3.339 29.7146 3.28204C29.3135 2.90565 28.6885 2.90667 28.2874 3.28102C28.2243 3.339 21.8355 9.16083 4.87619 13.5961C4.46086 13.705 4.15445 14.0569 4.10457 14.4832C4.072 14.7629 1.14636 42.5537 28.6315 52.9329C28.7506 52.9776 28.8748 53 29 53C29.1252 53 29.2494 52.9776 29.3685 52.9329C56.8536 42.5536 53.928 14.7629 53.8954 14.4832ZM29 50.8434C5.49919 41.7399 5.81578 19.7231 6.11404 15.4241C20.1651 11.6552 26.9223 7.03576 29 5.39999C31.0767 7.03576 37.8309 11.6531 51.8778 15.4221C52.1181 19.6397 52.2229 41.8406 29 50.8434Z" fill="#D4D4D4"/>
</g>
<g filter="url(#filter2_dd_3806_54)">
<path d="M40.8991 16.3337C37.7423 13.1089 33.5168 11.3328 29 11.3328C24.4833 11.3328 20.2577 13.1089 17.1041 16.3306C14.0196 19.4587 12.3217 23.6031 12.3217 27.9997C12.3217 32.3963 14.0196 36.5407 17.101 39.6657C20.2577 42.8905 24.4833 44.6666 29 44.6666C33.5168 44.6666 37.7424 42.8905 40.896 39.6688C43.9805 36.5407 45.6784 32.3963 45.6784 27.9997C45.6784 23.6032 43.9805 19.4587 40.8991 16.3337ZM23.4387 14.5132C22.5923 15.606 21.8542 16.9376 21.2613 18.472C20.6014 18.056 19.9721 17.5868 19.3783 17.0619C20.5988 15.9832 21.9643 15.1215 23.4387 14.5132ZM17.9162 18.545C18.7515 19.2937 19.6481 19.9487 20.5976 20.5063C20.0558 22.4587 19.7246 24.6357 19.6473 26.958H14.4569C14.6768 23.8393 15.8787 20.9164 17.9162 18.545ZM14.4568 29.0414H19.6472C19.7246 31.3638 20.0558 33.5406 20.5975 35.4931C19.6479 36.0508 18.7513 36.7058 17.916 37.4545C15.8795 35.0848 14.6769 32.1611 14.4568 29.0414ZM19.3784 38.9373C19.9722 38.4123 20.6015 37.9433 21.2613 37.5273C21.8542 39.0616 22.5922 40.3931 23.4386 41.4858C21.9647 40.8777 20.5993 40.0162 19.3784 38.9373ZM27.9576 42.409C26.0028 41.8203 24.2758 39.6215 23.1337 36.5245C24.6466 35.8586 26.2722 35.4607 27.9576 35.3426V42.409ZM27.9576 33.2594C26.0588 33.3757 24.2203 33.7908 22.5083 34.5148C22.0757 32.8376 21.8034 30.987 21.7306 29.0414H27.9576V33.2594ZM27.9576 26.9579H21.7306C21.8035 25.0123 22.0758 23.1617 22.5083 21.4845C24.2203 22.2085 26.0588 22.6234 27.9576 22.7399V26.9579ZM27.9576 20.6566C26.2722 20.5385 24.6467 20.1406 23.1337 19.4748C24.2757 16.3779 26.0027 14.1791 27.9576 13.5903V20.6566ZM43.5433 26.9579H38.353C38.2756 24.6355 37.9444 22.4586 37.4027 20.5062C38.3523 19.9485 39.2488 19.2935 40.0842 18.5448C42.1207 20.9146 43.3233 23.8381 43.5433 26.9579ZM38.6218 17.062C38.028 17.5869 37.3988 18.056 36.7388 18.472C36.146 16.9378 35.4079 15.6062 34.5616 14.5135C36.0355 15.1217 37.4009 15.9832 38.6218 17.062ZM30.0424 13.5903C31.9972 14.179 33.7243 16.3778 34.8664 19.4748C33.3535 20.1407 31.7279 20.5385 30.0424 20.6566V13.5903ZM30.0424 22.7399C31.9413 22.6235 33.7798 22.2085 35.4918 21.4845C35.9244 23.1617 36.1967 25.0123 36.2695 26.9579H30.0424V22.7399ZM30.0424 29.0414H36.2695C36.1966 30.987 35.9243 32.8376 35.4918 34.5148C33.7798 33.7908 31.9413 33.3758 30.0424 33.2594V29.0414ZM30.0424 42.409V35.3426C31.7279 35.4607 33.3534 35.8587 34.8664 36.5245C33.7244 39.6215 31.9972 41.8203 30.0424 42.409ZM34.5614 41.4861C35.4077 40.3934 36.146 39.0617 36.7388 37.5273C37.3988 37.9433 38.028 38.4124 38.6218 38.9374C37.4015 40.0162 36.0359 40.8779 34.5614 41.4861ZM40.084 37.4544C39.2486 36.7057 38.3521 36.0507 37.4026 35.4931C37.9444 33.5406 38.2756 31.3637 38.3529 29.0414H43.5432C43.3234 32.16 42.1214 35.0828 40.084 37.4544Z" fill="#D4D4D4"/>
</g>
<defs>
<filter id="filter0_dd_3806_54" x="63.3636" y="16" width="135.232" height="26.3068" filterUnits="userSpaceOnUse" color-interpolation-filters="sRGB">
<feFlood flood-opacity="0" result="BackgroundImageFix"/>
<feColorMatrix in="SourceAlpha" type="matrix" values="0 0 0 0 0 0 0 0 0 0 0 0 0 0 0 0 0 0 127 0" result="hardAlpha"/>
<feMorphology radius="1" operator="dilate" in="SourceAlpha" result="effect1_dropShadow_3806_54"/>
<feOffset dy="1"/>
<feGaussianBlur stdDeviation="1.5"/>
<feColorMatrix type="matrix" values="0 0 0 0 0 0 0 0 0 0 0 0 0 0 0 0 0 0 0.15 0"/>
<feBlend mode="normal" in2="BackgroundImageFix" result="effect1_dropShadow_3806_54"/>
<feColorMatrix in="SourceAlpha" type="matrix" values="0 0 0 0 0 0 0 0 0 0 0 0 0 0 0 0 0 0 127 0" result="hardAlpha"/>
<feOffset dy="1"/>
<feGaussianBlur stdDeviation="1"/>
<feColorMatrix type="matrix" values="0 0 0 0 0 0 0 0 0 0 0 0 0 0 0 0 0 0 0.3 0"/>
<feBlend mode="normal" in2="effect1_dropShadow_3806_54" result="effect2_dropShadow_3806_54"/>
<feBlend mode="normal" in="SourceGraphic" in2="effect2_dropShadow_3806_54" result="shape"/>
</filter>
<filter id="filter1_dd_3806_54" x="0" y="0" width="58" height="58" filterUnits="userSpaceOnUse" color-interpolation-filters="sRGB">
<feFlood flood-opacity="0" result="BackgroundImageFix"/>
<feColorMatrix in="SourceAlpha" type="matrix" values="0 0 0 0 0 0 0 0 0 0 0 0 0 0 0 0 0 0 127 0" result="hardAlpha"/>
<feMorphology radius="1" operator="dilate" in="SourceAlpha" result="effect1_dropShadow_3806_54"/>
<feOffset dy="1"/>
<feGaussianBlur stdDeviation="1.5"/>
<feColorMatrix type="matrix" values="0 0 0 0 0 0 0 0 0 0 0 0 0 0 0 0 0 0 0.15 0"/>
<feBlend mode="normal" in2="BackgroundImageFix" result="effect1_dropShadow_3806_54"/>
<feColorMatrix in="SourceAlpha" type="matrix" values="0 0 0 0 0 0 0 0 0 0 0 0 0 0 0 0 0 0 127 0" result="hardAlpha"/>
<feOffset dy="1"/>
<feGaussianBlur stdDeviation="1"/>
<feColorMatrix type="matrix" values="0 0 0 0 0 0 0 0 0 0 0 0 0 0 0 0 0 0 0.3 0"/>
<feBlend mode="normal" in2="effect1_dropShadow_3806_54" result="effect2_dropShadow_3806_54"/>
<feBlend mode="normal" in="SourceGraphic" in2="effect2_dropShadow_3806_54" result="shape"/>
</filter>
<filter id="filter2_dd_3806_54" x="8.32166" y="8.33276" width="41.3568" height="41.3339" filterUnits="userSpaceOnUse" color-interpolation-filters="sRGB">
<feFlood flood-opacity="0" result="BackgroundImageFix"/>
<feColorMatrix in="SourceAlpha" type="matrix" values="0 0 0 0 0 0 0 0 0 0 0 0 0 0 0 0 0 0 127 0" result="hardAlpha"/>
<feMorphology radius="1" operator="dilate" in="SourceAlpha" result="effect1_dropShadow_3806_54"/>
<feOffset dy="1"/>
<feGaussianBlur stdDeviation="1.5"/>
<feColorMatrix type="matrix" values="0 0 0 0 0 0 0 0 0 0 0 0 0 0 0 0 0 0 0.15 0"/>
<feBlend mode="normal" in2="BackgroundImageFix" result="effect1_dropShadow_3806_54"/>
<feColorMatrix in="SourceAlpha" type="matrix" values="0 0 0 0 0 0 0 0 0 0 0 0 0 0 0 0 0 0 127 0" result="hardAlpha"/>
<feOffset dy="1"/>
<feGaussianBlur stdDeviation="1"/>
<feColorMatrix type="matrix" values="0 0 0 0 0 0 0 0 0 0 0 0 0 0 0 0 0 0 0.3 0"/>
<feBlend mode="normal" in2="effect1_dropShadow_3806_54" result="effect2_dropShadow_3806_54"/>
<feBlend mode="normal" in="SourceGraphic" in2="effect2_dropShadow_3806_54" result="shape"/>
</filter>
</defs>
</svg>
