<svg width="192" height="50" viewBox="0 0 192 50" fill="none" xmlns="http://www.w3.org/2000/svg">
<path d="M68.2074 21.3438C68.1278 20.5994 67.7926 20.0199 67.2017 19.6051C66.6165 19.1903 65.8551 18.983 64.9176 18.983C64.2585 18.983 63.6932 19.0824 63.2216 19.2812C62.75 19.4801 62.3892 19.75 62.1392 20.0909C61.8892 20.4318 61.7614 20.821 61.7557 21.2585C61.7557 21.6222 61.8381 21.9375 62.0028 22.2045C62.1733 22.4716 62.4034 22.6989 62.6932 22.8864C62.983 23.0682 63.304 23.2216 63.6562 23.3466C64.0085 23.4716 64.3636 23.5767 64.7216 23.6619L66.358 24.071C67.017 24.2244 67.6506 24.4318 68.2585 24.6932C68.8722 24.9545 69.4205 25.2841 69.9034 25.6818C70.392 26.0795 70.7784 26.5597 71.0625 27.1222C71.3466 27.6847 71.4886 28.3437 71.4886 29.0994C71.4886 30.1222 71.2273 31.0227 70.7045 31.8011C70.1818 32.5739 69.4261 33.179 68.4375 33.6165C67.4545 34.0483 66.2642 34.2642 64.8665 34.2642C63.5085 34.2642 62.3295 34.054 61.3295 33.6335C60.3352 33.2131 59.5568 32.5994 58.9943 31.7926C58.4375 30.9858 58.1364 30.0028 58.0909 28.8438H61.2017C61.2472 29.4517 61.4347 29.9574 61.7642 30.3608C62.0938 30.7642 62.5227 31.0653 63.0511 31.2642C63.5852 31.4631 64.1818 31.5625 64.8409 31.5625C65.5284 31.5625 66.1307 31.4602 66.6477 31.2557C67.1705 31.0455 67.5795 30.7557 67.875 30.3864C68.1705 30.0114 68.321 29.5739 68.3267 29.0739C68.321 28.6193 68.1875 28.2443 67.9261 27.9489C67.6648 27.6477 67.2983 27.3977 66.8267 27.1989C66.3608 26.9943 65.8153 26.8125 65.1903 26.6534L63.2045 26.142C61.767 25.7727 60.6307 25.2131 59.7955 24.4631C58.9659 23.7074 58.5511 22.7045 58.5511 21.4545C58.5511 20.4261 58.8295 19.5256 59.3864 18.7528C59.9489 17.9801 60.7131 17.3807 61.679 16.9545C62.6449 16.5227 63.7386 16.3068 64.9602 16.3068C66.1989 16.3068 67.2841 16.5227 68.2159 16.9545C69.1534 17.3807 69.8892 17.9744 70.4233 18.7358C70.9574 19.4915 71.233 20.3608 71.25 21.3438H68.2074ZM77.2564 26.3295V34H74.1712V16.5455H77.1882V23.1335H77.3416C77.6484 22.3949 78.1229 21.8125 78.7649 21.3864C79.4126 20.9545 80.2365 20.7386 81.2365 20.7386C82.1456 20.7386 82.9382 20.929 83.6143 21.3097C84.2905 21.6903 84.8132 22.2472 85.1825 22.9801C85.5575 23.7131 85.745 24.608 85.745 25.6648V34H82.6598V26.142C82.6598 25.2614 82.4325 24.5767 81.978 24.0881C81.5291 23.5937 80.8984 23.3466 80.0859 23.3466C79.5405 23.3466 79.0518 23.4659 78.62 23.7045C78.1939 23.9375 77.8587 24.2756 77.6143 24.7188C77.3757 25.1619 77.2564 25.6989 77.2564 26.3295ZM94.6854 34.2557C93.3729 34.2557 92.2393 33.983 91.2848 33.4375C90.3359 32.8864 89.6058 32.108 89.0945 31.1023C88.5831 30.0909 88.3274 28.9006 88.3274 27.5312C88.3274 26.1847 88.5831 25.0028 89.0945 23.9858C89.6115 22.9631 90.3331 22.1676 91.2592 21.5994C92.1854 21.0256 93.2734 20.7386 94.5234 20.7386C95.3303 20.7386 96.0916 20.8693 96.8075 21.1307C97.5291 21.3864 98.1655 21.7841 98.7166 22.3239C99.2734 22.8636 99.7109 23.5511 100.029 24.3864C100.347 25.2159 100.506 26.2045 100.506 27.3523V28.2983H89.7763V26.2188H97.549C97.5433 25.6278 97.4155 25.1023 97.1655 24.642C96.9155 24.1761 96.5661 23.8097 96.1172 23.5426C95.674 23.2756 95.157 23.142 94.5661 23.142C93.9354 23.142 93.3814 23.2955 92.9041 23.6023C92.4268 23.9034 92.0547 24.3011 91.7876 24.7955C91.5263 25.2841 91.3928 25.821 91.3871 26.4062V28.2216C91.3871 28.983 91.5263 29.6364 91.8047 30.1818C92.0831 30.7216 92.4723 31.1364 92.9723 31.4261C93.4723 31.7102 94.0575 31.8523 94.728 31.8523C95.1768 31.8523 95.5831 31.7898 95.9467 31.6648C96.3104 31.5341 96.6257 31.3438 96.8928 31.0938C97.1598 30.8438 97.3615 30.5341 97.4979 30.1648L100.379 30.4886C100.197 31.25 99.8501 31.9148 99.3388 32.483C98.8331 33.0455 98.1854 33.483 97.3956 33.7955C96.6058 34.1023 95.7024 34.2557 94.6854 34.2557ZM103.116 34V20.9091H106.202V34H103.116ZM104.668 19.0511C104.179 19.0511 103.759 18.8892 103.406 18.5653C103.054 18.2358 102.878 17.8409 102.878 17.3807C102.878 16.9148 103.054 16.5199 103.406 16.196C103.759 15.8665 104.179 15.7017 104.668 15.7017C105.162 15.7017 105.582 15.8665 105.929 16.196C106.281 16.5199 106.457 16.9148 106.457 17.3807C106.457 17.8409 106.281 18.2358 105.929 18.5653C105.582 18.8892 105.162 19.0511 104.668 19.0511ZM112.46 16.5455V34H109.374V16.5455H112.46ZM120.49 34.2301C119.462 34.2301 118.541 33.9659 117.729 33.4375C116.916 32.9091 116.274 32.142 115.803 31.1364C115.331 30.1307 115.095 28.9091 115.095 27.4716C115.095 26.017 115.334 24.7898 115.811 23.7898C116.294 22.7841 116.945 22.0256 117.763 21.5142C118.581 20.9972 119.493 20.7386 120.499 20.7386C121.266 20.7386 121.896 20.8693 122.391 21.1307C122.885 21.3864 123.277 21.696 123.567 22.0597C123.857 22.4176 124.081 22.7557 124.24 23.0739H124.368V16.5455H127.462V34H124.428V31.9375H124.24C124.081 32.2557 123.851 32.5937 123.55 32.9517C123.249 33.304 122.851 33.6051 122.357 33.8551C121.862 34.1051 121.24 34.2301 120.49 34.2301ZM121.351 31.6989C122.004 31.6989 122.561 31.5227 123.021 31.1705C123.482 30.8125 123.831 30.3153 124.07 29.679C124.308 29.0426 124.428 28.3011 124.428 27.4545C124.428 26.608 124.308 25.8722 124.07 25.2472C123.837 24.6222 123.49 24.1364 123.03 23.7898C122.575 23.4432 122.016 23.2699 121.351 23.2699C120.663 23.2699 120.089 23.4489 119.629 23.8068C119.169 24.1648 118.822 24.6591 118.589 25.2898C118.357 25.9205 118.24 26.642 118.24 27.4545C118.24 28.2727 118.357 29.0028 118.589 29.6449C118.828 30.2812 119.178 30.7841 119.638 31.1534C120.104 31.517 120.675 31.6989 121.351 31.6989ZM141.096 24.3693L138.283 24.6761C138.204 24.392 138.065 24.125 137.866 23.875C137.673 23.625 137.411 23.4233 137.082 23.2699C136.752 23.1165 136.349 23.0398 135.871 23.0398C135.229 23.0398 134.69 23.179 134.252 23.4574C133.82 23.7358 133.607 24.0966 133.613 24.5398C133.607 24.9205 133.746 25.2301 134.031 25.4688C134.32 25.7074 134.798 25.9034 135.462 26.0568L137.695 26.5341C138.934 26.8011 139.854 27.2244 140.457 27.804C141.065 28.3835 141.371 29.142 141.377 30.0795C141.371 30.9034 141.13 31.6307 140.653 32.2614C140.181 32.8864 139.525 33.375 138.684 33.7273C137.843 34.0795 136.877 34.2557 135.786 34.2557C134.184 34.2557 132.894 33.9205 131.917 33.25C130.94 32.5739 130.357 31.6335 130.17 30.429L133.178 30.1392C133.315 30.7301 133.604 31.1761 134.048 31.4773C134.491 31.7784 135.067 31.929 135.778 31.929C136.511 31.929 137.099 31.7784 137.542 31.4773C137.991 31.1761 138.215 30.804 138.215 30.3608C138.215 29.9858 138.07 29.6761 137.781 29.4318C137.496 29.1875 137.053 29 136.451 28.8693L134.218 28.4006C132.962 28.1392 132.033 27.6989 131.431 27.0795C130.829 26.4545 130.531 25.6648 130.536 24.7102C130.531 23.9034 130.749 23.2045 131.192 22.6136C131.641 22.017 132.263 21.5568 133.059 21.233C133.86 20.9034 134.783 20.7386 135.829 20.7386C137.363 20.7386 138.57 21.0653 139.451 21.7188C140.337 22.3722 140.886 23.2557 141.096 24.3693ZM145.291 16.5455L149.834 30.2841H150.013L154.547 16.5455H158.024L151.871 34H147.967L141.822 16.5455H145.291ZM160.323 34V16.5455H166.869C168.21 16.5455 169.335 16.7955 170.244 17.2955C171.158 17.7955 171.849 18.483 172.315 19.358C172.786 20.2273 173.022 21.2159 173.022 22.3239C173.022 23.4432 172.786 24.4375 172.315 25.3068C171.843 26.1761 171.147 26.8608 170.227 27.3608C169.306 27.8551 168.173 28.1023 166.826 28.1023H162.488V25.5028H166.4C167.184 25.5028 167.826 25.3665 168.326 25.0938C168.826 24.821 169.195 24.446 169.434 23.9688C169.678 23.4915 169.8 22.9432 169.8 22.3239C169.8 21.7045 169.678 21.1591 169.434 20.6875C169.195 20.2159 168.823 19.8494 168.317 19.5881C167.817 19.321 167.173 19.1875 166.383 19.1875H163.485V34H160.323ZM190.112 16.5455V34H187.3L179.075 22.1108H178.93V34H175.768V16.5455H178.598L186.814 28.4432H186.967V16.5455H190.112Z" fill="#D4D4D4"/>
<path d="M49.8954 11.4832C49.8455 11.0569 49.5391 10.705 49.1238 10.5961C32.1645 6.16083 25.7757 0.339005 25.7146 0.282038C25.3135 -0.0943516 24.6885 -0.0933343 24.2874 0.28102C24.2243 0.339005 17.8355 6.16083 0.876194 10.5961C0.460863 10.705 0.154455 11.0569 0.104574 11.4832C0.0719994 11.7629 -2.85364 39.5537 24.6315 49.9329C24.7506 49.9776 24.8748 50 25 50C25.1252 50 25.2494 49.9776 25.3685 49.9329C52.8536 39.5536 49.928 11.7629 49.8954 11.4832ZM25 47.8434C1.49919 38.7399 1.81578 16.7231 2.11404 12.4241C16.1651 8.65517 22.9223 4.03576 25 2.39999C27.0767 4.03576 33.8309 8.65314 47.8778 12.4221C48.1181 16.6397 48.2229 38.8406 25 47.8434Z" fill="#D4D4D4"/>
<path d="M36.8991 13.3337C33.7423 10.1089 29.5168 8.33276 25 8.33276C20.4833 8.33276 16.2577 10.1089 13.1041 13.3306C10.0196 16.4587 8.32166 20.6031 8.32166 24.9997C8.32166 29.3963 10.0196 33.5407 13.101 36.6657C16.2577 39.8905 20.4833 41.6666 25 41.6666C29.5168 41.6666 33.7424 39.8905 36.896 36.6688C39.9805 33.5407 41.6784 29.3963 41.6784 24.9997C41.6784 20.6032 39.9805 16.4587 36.8991 13.3337ZM19.4387 11.5132C18.5923 12.606 17.8542 13.9376 17.2613 15.472C16.6014 15.056 15.9721 14.5868 15.3783 14.0619C16.5988 12.9832 17.9643 12.1215 19.4387 11.5132ZM13.9162 15.545C14.7515 16.2937 15.6481 16.9487 16.5976 17.5063C16.0558 19.4587 15.7246 21.6357 15.6473 23.958H10.4569C10.6768 20.8393 11.8787 17.9164 13.9162 15.545ZM10.4568 26.0414H15.6472C15.7246 28.3638 16.0558 30.5406 16.5975 32.4931C15.6479 33.0508 14.7513 33.7058 13.916 34.4545C11.8795 32.0848 10.6769 29.1611 10.4568 26.0414ZM15.3784 35.9373C15.9722 35.4123 16.6015 34.9433 17.2613 34.5273C17.8542 36.0616 18.5922 37.3931 19.4386 38.4858C17.9647 37.8777 16.5993 37.0162 15.3784 35.9373ZM23.9576 39.409C22.0028 38.8203 20.2758 36.6215 19.1337 33.5245C20.6466 32.8586 22.2722 32.4607 23.9576 32.3426V39.409ZM23.9576 30.2594C22.0588 30.3757 20.2203 30.7908 18.5083 31.5148C18.0757 29.8376 17.8034 27.987 17.7306 26.0414H23.9576V30.2594ZM23.9576 23.9579H17.7306C17.8035 22.0123 18.0758 20.1617 18.5083 18.4845C20.2203 19.2085 22.0588 19.6234 23.9576 19.7399V23.9579ZM23.9576 17.6566C22.2722 17.5385 20.6467 17.1406 19.1337 16.4748C20.2757 13.3779 22.0027 11.1791 23.9576 10.5903V17.6566ZM39.5433 23.9579H34.353C34.2756 21.6355 33.9444 19.4586 33.4027 17.5062C34.3523 16.9485 35.2488 16.2935 36.0842 15.5448C38.1207 17.9146 39.3233 20.8381 39.5433 23.9579ZM34.6218 14.062C34.028 14.5869 33.3988 15.056 32.7388 15.472C32.146 13.9378 31.4079 12.6062 30.5616 11.5135C32.0355 12.1217 33.4009 12.9832 34.6218 14.062ZM26.0424 10.5903C27.9972 11.179 29.7243 13.3778 30.8664 16.4748C29.3535 17.1407 27.7279 17.5385 26.0424 17.6566V10.5903ZM26.0424 19.7399C27.9413 19.6235 29.7798 19.2085 31.4918 18.4845C31.9244 20.1617 32.1967 22.0123 32.2695 23.9579H26.0424V19.7399ZM26.0424 26.0414H32.2695C32.1966 27.987 31.9243 29.8376 31.4918 31.5148C29.7798 30.7908 27.9413 30.3758 26.0424 30.2594V26.0414ZM26.0424 39.409V32.3426C27.7279 32.4607 29.3534 32.8587 30.8664 33.5245C29.7244 36.6215 27.9972 38.8203 26.0424 39.409ZM30.5614 38.4861C31.4077 37.3934 32.146 36.0617 32.7388 34.5273C33.3988 34.9433 34.028 35.4124 34.6218 35.9374C33.4015 37.0162 32.0359 37.8779 30.5614 38.4861ZM36.084 34.4544C35.2486 33.7057 34.3521 33.0507 33.4026 32.4931C33.9444 30.5406 34.2756 28.3637 34.3529 26.0414H39.5432C39.3234 29.16 38.1214 32.0828 36.084 34.4544Z" fill="#D4D4D4"/>
</svg>
